<svg width="1810" height="1370" xmlns="http://www.w3.org/2000/svg">

 <g>
  <title>background</title>
  <rect fill="none" id="canvas_background" height="1372" width="1812" y="-1" x="-1"/>
 </g>
 <g>
  <title>Layer 1</title>
  <rect id="svg_1" fill="none" height="2000" width="2000"/>
  <g id="svg_2">
   <rect id="svg_3" fill="none" height="1363.99995" width="1807.99994" y="324.44005" x="92.00006"/>
   <g id="svg_4">
    <path id="svg_5" fill="#E5E6EB" d="m288.71799,666.26696c52.598,-15.961 115.686,-13.5 152.977,-53.883c28.812,-31.201 31.457,-80.593 14.484,-119.523c-16.973,-38.93 -50.366,-68.548 -86.573,-90.744c-36.704,-22.5 -77.674,-39.064 -109.166,-68.419s-51.532,-77.43 -32.335,-115.964c24.451,-49.079 92.047,-53.059 146.621,-47.742c113.579,11.066 226.198,32.591 340.221,37.199c114.023,4.607 231.932,-8.854 332.183,-63.373c59.364,-32.284 110.818,-77.995 171.307,-108.117c60.489,-30.123 136.715,-42.399 193.638,-5.984c51.905,33.205 74.483,98.742 76.36,160.331c1.877,61.589 -13.1,122.325 -18.961,183.663c-5.86,61.338 -1.252,127.436 34.776,177.423c22.313,30.958 54.684,52.952 81.458,80.144c69.236,70.316 97.788,178.149 72.421,273.513c-15.473,58.168 -50.686,110.399 -97.259,148.274c-32.361,26.317 -76.569,57.83 -115.675,73.273c-54.709,21.605 -124.696,22.566 -182.809,24.769c-127.694,4.84 -256.292,-12.983 -377.636,-53.144c-97.781,-32.362 -195.541,-79.574 -298.174,-70.913c-85.912,7.25 -167.241,53.641 -253.206,47.05c-96.092,-7.367 -181.035,-89.59 -191.524,-185.392c-10.488,-95.801 54.651,-194.456 146.872,-222.441z"/>
    <ellipse id="svg_6" fill="#E5E6EB" ry="39.156" rx="899.613" cy="1321.06896" cx="903.99999"/>
    <g id="svg_7">
     <g id="svg_8">
      <g id="svg_9">
       <path id="svg_10" fill="#84A9FF" d="m305.21399,407.34596c6.41,9.654 9.966,20.73 12.734,32.554c0.173,0.715 0.338,1.437 0.503,2.159c2.949,12.694 5.847,25.407 13.061,36.053c8.379,12.389 22.336,21.701 29.952,33.932c0.509,0.813 0.981,1.646 1.438,2.493c1.77,3.355 3.048,6.93 3.594,10.859c1.864,13.269 -5.487,25.796 -10.463,38.261c-0.1,0.228 -0.192,0.463 -0.285,0.698c-0.168,0.427 -0.329,0.848 -0.483,1.276c-8.726,23.098 -8.924,49.308 -0.53,72.524c6.5,17.985 18.119,29.383 29.75,43.794c6.304,7.803 7.724,14.689 6.026,20.579c-0.189,0.667 -0.412,1.309 -0.686,1.942c-4.355,10.389 -18.542,17.427 -31.797,20.659c-24.579,6 -51.834,2.363 -73.023,-11.834c-16.209,-10.866 -29.271,-29.268 -27.895,-48.416c0.052,-0.696 0.118,-1.391 0.214,-2.084c0.069,-0.615 0.159,-1.207 0.265,-1.812c1.495,-8.468 5.811,-17.041 3.313,-25.279c-3.093,-10.148 -14.913,-14.682 -21.199,-23.233c-7.514,-10.211 -5.828,-24.679 0.071,-36.039c0.317,-0.616 0.641,-1.224 0.985,-1.81c0.049,-0.099 0.105,-0.191 0.161,-0.283c6.801,-11.633 17.222,-20.633 25.909,-30.935c4.826,-5.729 9.22,-12.245 11.893,-19.217c0.238,-0.642 0.476,-1.284 0.686,-1.942c1.663,-4.96 2.407,-10.144 1.772,-15.402c-1.521,-12.61 -10.625,-23.008 -20.624,-30.834c-9.091,-7.123 -19.281,-12.872 -27.823,-20.598c-0.749,-0.68 -1.505,-1.383 -2.223,-2.105c-0.098,-0.078 -0.187,-0.177 -0.277,-0.262c-14.705,-14.634 -21.94,-36.406 -18.911,-56.927c0.72,-4.887 2.145,-9.867 4.412,-14.293c0.366,-0.715 0.76,-1.414 1.171,-2.104c6.086,-10.196 27.149,-6.043 36.494,-4.275c15.116,2.859 30.203,9.871 41.817,20.313c3.969,3.563 7.247,7.445 9.998,11.588z"/>
      </g>
      <path id="svg_11" fill="#E5E6EB" d="m294.77399,465.56196c-10.686,-18.74 -26.971,-33.612 -42.736,-48.012c-8.947,-8.178 -18.199,-16.634 -26.334,-25.692c-3.145,-3.501 -6.37,-7.661 -8.8,-12.135c-0.408,0.684 -0.802,1.383 -1.167,2.098c2.43,4.212 5.466,8.1 8.439,11.41c8.204,9.134 17.49,17.628 26.479,25.837c15.96,14.571 32.459,29.65 42.972,48.643c0.332,0.586 0.656,1.192 0.974,1.791c0.072,0.142 0.146,0.27 0.21,0.419c1.577,3.017 2.991,6.097 4.242,9.227c-6.269,0.631 -12.439,-1.948 -16.682,-4.365c-3.261,-1.863 -6.377,-4.133 -9.395,-6.325c-2.409,-1.759 -4.902,-3.566 -7.485,-5.181c-10.375,-6.508 -22.646,-9.822 -34.977,-9.974c0.718,0.722 1.474,1.425 2.223,2.105l0.007,0.008c11.178,0.484 22.226,3.681 31.657,9.6c2.521,1.576 4.985,3.367 7.373,5.103c3.06,2.223 6.218,4.524 9.585,6.444c4.638,2.657 11.457,5.467 18.475,4.563c3.964,10.471 6.312,21.482 7.709,32.739c0.094,0.689 0.173,1.392 0.244,2.087c0.86,7.445 1.312,15.007 1.56,22.587c-8.605,-7.366 -18.731,-12.952 -29.565,-16.188c-0.129,-0.036 -0.243,-0.071 -0.372,-0.107c-0.21,0.658 -0.448,1.3 -0.686,1.942c0.158,0.038 0.315,0.09 0.466,0.134c11.164,3.342 21.564,9.233 30.24,17.032c0.188,7.205 0.216,14.417 0.24,21.578c0,0.8 0.009,1.593 0.01,2.394c0.006,0.699 0.006,1.39 0.012,2.089c0.002,1.186 0.01,2.38 0.02,3.558c0.064,10.066 0.378,20.21 1.276,30.19c-25.219,-2.816 -49.483,-12.026 -70.226,-26.54c-0.344,0.585 -0.668,1.193 -0.985,1.81c21.11,14.724 45.791,24.029 71.419,26.823c1.618,16.362 4.914,32.225 11.454,46.472c-21.028,7.355 -43.091,11.745 -65.323,13.069c-0.095,0.693 -0.162,1.388 -0.214,2.083c22.611,-1.333 45.041,-5.79 66.418,-13.28c3.229,6.671 7.184,12.965 12.053,18.77c13.867,16.547 32.577,26.492 54.243,34.1c0.274,-0.633 0.497,-1.276 0.686,-1.942c-21.366,-7.505 -39.779,-17.289 -53.353,-33.478c-4.705,-5.607 -8.54,-11.692 -11.679,-18.139c-0.301,-0.627 -0.595,-1.247 -0.882,-1.874c-6.426,-13.935 -9.695,-29.491 -11.313,-45.577c-0.08,-0.688 -0.144,-1.375 -0.209,-2.077c-0.924,-10.039 -1.248,-20.271 -1.315,-30.417c-0.009,-1.318 -0.012,-2.627 -0.014,-3.951c14.344,-2.635 29.036,-3.099 43.517,-1.383c0.154,-0.428 0.314,-0.849 0.483,-1.276c0.093,-0.235 0.185,-0.47 0.285,-0.698c-14.738,-1.802 -29.691,-1.367 -44.296,1.269c-0.001,-0.662 -0.001,-1.339 -0.009,-2.009c-0.021,-6.513 -0.048,-13.062 -0.191,-19.618c-0.021,-0.961 -0.043,-1.923 -0.078,-2.885c-0.232,-8.423 -0.705,-16.823 -1.665,-25.103c17.131,-5.236 35.788,-5.406 53.109,-0.774c-0.456,-0.846 -0.928,-1.679 -1.438,-2.492c-0.007,-0.008 -0.007,-0.008 -0.007,-0.008c-17.02,-4.158 -35.16,-3.843 -51.917,1.195c-1.463,-11.654 -3.958,-23.058 -8.2,-33.9l-0.006,-0.022l-0.013,-0.029l-0.106,-0.471c-0.022,0.006 -0.044,0.012 -0.073,0.01c-1.385,-3.479 -2.947,-6.91 -4.724,-10.271c-0.152,-0.292 -0.305,-0.569 -0.464,-0.855c5.402,-10.099 13.208,-18.906 22.496,-25.632c-0.166,-0.722 -0.33,-1.444 -0.503,-2.159c-9.491,6.714 -17.515,15.523 -23.174,25.66z"/>
     </g>
     <path id="svg_12" fill="#E5E6EB" d="m276.45999,675.54596c-7.171,-0.101 -12.029,6.851 -17.018,12.002c-5.165,5.333 -12.172,9.437 -19.589,9.125c-7.417,-0.312 -14.794,-6.195 -14.93,-13.617c-0.118,-6.42 4.924,-11.935 10.661,-14.817c5.738,-2.882 12.223,-3.811 18.387,-5.61c6.164,-1.799 12.44,-4.824 15.665,-10.376c3.224,-5.552 1.841,-14.045 -4.088,-16.509c-4.528,-1.882 -9.848,0.323 -13.384,3.72c-3.536,3.397 -5.849,7.841 -8.81,11.75c-11.654,15.383 -34.433,21.096 -51.967,13.033c-6.772,-3.114 -13.33,-9.587 -11.987,-16.92c1.687,-9.201 13.006,-11.167 20.787,-10.507c8.983,0.763 17.325,5.041 26.35,5.495c11.818,0.595 33.069,-9.039 30.775,-23.694c-0.919,-5.87 -9.416,-6.331 -13.84,-5.251c-5.326,1.301 -9.854,4.598 -14.636,7.123c-22.723,11.999 -49.304,6.089 -67.198,-11.565c-15.404,-15.197 4.341,-21.031 17.532,-22.322c9.055,-0.886 18.408,0.819 26.377,5.273c4.322,2.415 8.421,5.609 13.316,6.357c4.895,0.748 10.865,-2.351 10.815,-7.302c-0.051,-5.157 -5.953,-7.917 -10.879,-9.445c-8.869,-2.751 -17.738,-5.503 -26.607,-8.254c-4.985,-1.547 -10.133,-3.183 -14.046,-6.637c-3.913,-3.455 -6.257,-9.264 -4.129,-14.03c2.39,-5.354 9.467,-7.22 15.114,-5.641c5.647,1.579 10.176,5.695 14.477,9.68c7.781,7.209 15.562,14.418 23.343,21.627c3.181,2.947 7.307,6.121 11.413,4.727c4.33,-1.471 5.545,-7.065 5.095,-11.615c-0.961,-9.708 -6.144,-18.441 -11.553,-26.56c-5.409,-8.119 -11.274,-16.205 -13.917,-25.596c-2.643,-9.391 -1.346,-20.619 5.927,-27.121c10.547,-9.43 29.138,-3.54 35.719,8.984s3.292,28.337 -4.299,40.276c-3.28,5.159 -7.47,11.383 -4.635,16.799c2.932,5.603 11.566,5.336 16.556,1.453c4.991,-3.883 7.607,-9.981 11.148,-15.219c3.542,-5.239 9.167,-10.122 15.426,-9.219c6.56,0.947 10.774,8.53 9.465,15.027c-1.31,6.497 -6.912,11.499 -13.152,13.731c-10.746,3.843 -24.263,1.223 -32.43,9.195c-4.206,4.105 -5.865,10.789 -3.587,16.206c2.278,5.417 8.61,8.956 14.325,7.586c9.151,-2.193 12.21,-13.75 19.59,-19.588c7.036,-5.566 18.292,-4.747 24.448,1.779c6.156,6.526 6.319,17.81 0.353,24.51c-4.407,4.95 -11.099,7.093 -17.516,8.751c-6.416,1.658 -13.144,3.156 -18.325,7.289c-5.181,4.133 -8.215,11.855 -4.842,17.559c4.659,7.88 17.242,5.904 23.849,-0.434c6.607,-6.337 9.97,-15.399 16.233,-22.077c6.263,-6.677 18.215,-10.016 24.06,-2.97c5.593,6.742 0.817,17.478 -6.429,22.401c-7.246,4.922 -16.284,6.469 -23.906,10.786c-7.622,4.317 -13.97,13.66 -10.172,21.554c3.343,6.949 13.033,8.688 20.173,5.776c7.14,-2.912 12.317,-9.113 17.269,-15.023c4.952,-5.911 10.329,-12.003 17.609,-14.544c7.28,-2.542 16.924,0.001 19.536,7.256c2.456,6.821 -2.222,14.279 -8.012,18.643c-5.79,4.364 -12.821,6.979 -18.214,11.824c-5.393,4.845 -8.741,13.375 -4.624,19.343c4.38,6.348 13.94,5.793 21.247,3.329c7.307,-2.465 15.024,-6.176 22.366,-3.817c5.715,1.836 9.947,7.555 10.034,13.556c0.086,6.002 -3.98,11.84 -9.64,13.839c-9.037,3.193 -20.572,-2.627 -27.959,3.481c-4.248,3.513 -5.146,9.807 -4.033,15.206c1.113,5.399 3.853,10.302 5.778,15.468c4.363,11.709 4.112,25.842 -3.568,35.699s-23.788,13.096 -33.064,4.724c-7.116,-6.423 -8.422,-17.14 -7.41,-26.672c1.012,-9.533 3.857,-18.954 3.206,-28.518c-0.651,-9.564 -6.13,-19.816 -15.499,-21.844c-6.473,-1.401 -13.061,1.404 -18.943,4.45c-5.881,3.046 -11.94,6.492 -18.563,6.476c-6.623,-0.016 -13.767,-5.13 -13.217,-11.73c0.278,-3.339 2.433,-6.269 5.029,-8.388c9.904,-8.083 28.742,-9.161 30.98,-24.623c0.879,-6.066 -2.857,-14.715 -9.816,-14.813z"/>
     <g id="svg_13">
      <path id="svg_14" fill="#84A9FF" d="m138.36399,676.13596c0.418,0.683 0.835,1.367 1.252,2.039c0.686,1.096 1.372,2.192 2.068,3.277c15.66,24.526 34.233,48.514 39.584,77.125c0.284,1.515 0.527,3.054 0.737,4.597c0.107,0.717 0.202,1.434 0.288,2.163c3.153,25.626 -1.169,53.876 14.893,73.7c17.357,21.417 49.251,21.601 74.978,31.493c3.616,1.389 7.153,3.012 10.564,4.849c0.798,0.417 1.587,0.846 2.367,1.308c17.03,9.718 31.111,24.638 39.589,42.347c5.606,11.723 8.37,24.216 9.294,37.125c0.601,8.499 -1.482,17.422 5.168,24.051c8.456,8.4 26.517,9.012 41.885,7.411c0.719,-0.074 1.438,-0.159 2.156,-0.245c6.507,-0.779 12.404,-1.914 16.706,-2.976c21.204,-5.208 41.372,-20.862 45.095,-42.374c6.065,-35.017 -31.834,-68.025 -22.063,-102.2c3.428,-11.963 12.416,-21.975 17.159,-33.267c0.313,-0.747 0.615,-1.494 0.884,-2.249c1.006,-2.799 1.725,-5.684 2.011,-8.712c1.701,-18.26 -13.695,-34.305 -30.792,-40.958c-14.381,-5.587 -29.992,-6.411 -45.393,-8.052c-0.807,-0.092 -1.625,-0.184 -2.443,-0.275c-2.094,-0.236 -4.178,-0.495 -6.266,-0.796c-18.161,-2.563 -37.365,-8.888 -47.69,-24.062c-10.059,-14.792 -9.38,-34.61 -17.908,-50.348c-7.49,-13.823 -21.143,-22.751 -36.263,-27.948l-0.011,0.001c-0.677,-0.231 -1.363,-0.451 -2.049,-0.661c-5.337,-1.707 -10.826,-2.96 -16.273,-3.804c-21.671,-3.387 -43.909,-1.823 -65.555,-5.461c-20.43,-3.424 -41.482,-12.827 -51.984,-30.419c-0.637,-1.024 -1.213,-2.096 -1.758,-3.181c-0.105,0.484 -0.2,0.955 -0.295,1.438c-5.054,25.936 6.135,52.163 20.065,75.064z"/>
      <path id="svg_15" fill="#E5E6EB" d="m140.66099,649.62396c-15.498,-14.34 -23.714,-32.306 -22.362,-48.55c0.094,-0.483 0.19,-0.955 0.295,-1.438c0.544,1.084 1.12,2.156 1.758,3.181c-0.662,15.177 7.271,31.791 21.783,45.23c7.842,7.255 16.882,13.298 25.886,19.008l0.011,-0.001c0.682,0.448 1.362,0.873 2.042,1.299c0.93,0.591 1.848,1.163 2.766,1.744c5.272,3.323 10.713,6.742 15.909,10.352c10.254,7.111 19.782,15.096 28.745,23.632c16.515,-17.398 29.152,-38.72 36.67,-61.58c0.686,0.21 1.372,0.43 2.049,0.661c-7.614,23.17 -20.425,44.774 -37.161,62.405c8.983,8.664 17.39,17.878 25.414,27.326c0.473,0.549 0.936,1.11 1.398,1.66c8.196,9.727 15.975,19.669 23.518,29.498c9.276,12.07 18.643,24.502 27.835,37.346c26.863,-11.808 50.208,-31.178 67.134,-55.084c0.818,0.092 1.635,0.183 2.443,0.275c-17.116,24.547 -40.887,44.467 -68.287,56.607c9.27,13.022 18.343,26.46 26.954,40.374c0.393,0.642 0.785,1.273 1.178,1.914c4.888,7.969 9.624,16.09 14.147,24.388c5.783,-0.921 11.735,-3.671 17.115,-8.024c7.137,-5.768 12.615,-13.501 17.946,-21.039c5.106,-7.209 10.898,-15.387 18.473,-21.381c13.134,-10.403 30.673,-13.385 42.708,-14.721c1.309,-0.139 2.618,-0.278 3.94,-0.397c-0.269,0.755 -0.571,1.502 -0.884,2.249c-0.934,0.09 -1.879,0.181 -2.812,0.292c-11.778,1.306 -28.911,4.215 -41.616,14.273c-7.329,5.803 -13.023,13.845 -18.079,20.996c-5.381,7.596 -10.948,15.455 -18.319,21.412c-5.442,4.4 -11.462,7.253 -17.384,8.335c3.765,6.959 7.388,14.058 10.815,21.269c15.282,32.059 25.475,63.592 30.499,94.239c-0.718,0.085 -1.437,0.17 -2.156,0.245c-4.996,-30.422 -15.129,-61.711 -30.298,-93.562c-3.539,-7.419 -7.251,-14.695 -11.15,-21.861c-0.353,-0.688 -0.728,-1.374 -1.102,-2.061c-4.305,-7.839 -8.795,-15.544 -13.425,-23.1c-11.871,11.403 -25.306,21.395 -39.96,29.649c-0.78,-0.462 -1.568,-0.891 -2.367,-1.308c14.977,-8.277 28.874,-18.455 41.137,-30.264c-8.726,-14.155 -17.956,-27.818 -27.392,-41.045c-0.423,-0.607 -0.856,-1.203 -1.278,-1.799c-9.083,-12.69 -18.342,-24.968 -27.511,-36.906c-7.577,-9.848 -15.38,-19.82 -23.588,-29.557c-18.679,13.253 -39.726,23.251 -61.803,29.528c-0.086,-0.729 -0.182,-1.446 -0.288,-2.163c21.683,-6.195 42.342,-16.024 60.705,-29.016c-7.941,-9.346 -16.265,-18.458 -25.154,-27.021c-0.513,-0.503 -1.036,-1.005 -1.559,-1.497c-8.893,-8.465 -18.329,-16.371 -28.469,-23.415c-5.161,-3.58 -10.591,-7 -15.839,-10.292c-1.247,-0.785 -2.495,-1.58 -3.754,-2.374c-8.696,4.703 -18.402,7.577 -28.318,8.616c-0.417,-0.672 -0.835,-1.356 -1.252,-2.039c9.583,-0.864 19.003,-3.511 27.484,-7.896c-8.749,-5.574 -17.51,-11.496 -25.19,-18.612z"/>
     </g>
    </g>
    <g id="svg_16">
     <g id="svg_17">
      <g id="svg_18">
       <path id="svg_19" fill="#84A9FF" d="m1511.39099,309.27996c-6.771,9.404 -10.745,20.338 -13.959,32.048c-0.2,0.708 -0.392,1.423 -0.584,2.138c-3.428,12.573 -6.806,25.167 -14.418,35.532c-8.842,12.062 -23.142,20.839 -31.216,32.773c-0.54,0.793 -1.043,1.608 -1.531,2.436c-1.896,3.285 -3.308,6.809 -4.002,10.715c-2.365,13.189 4.506,25.985 9.006,38.63c0.091,0.231 0.175,0.47 0.258,0.708c0.152,0.434 0.297,0.86 0.434,1.294c7.844,23.412 7.049,49.611 -2.219,72.492c-7.177,17.726 -19.219,28.676 -31.389,42.636c-6.595,7.558 -8.275,14.386 -6.801,20.335c0.163,0.673 0.362,1.324 0.612,1.967c3.958,10.546 17.868,18.117 30.991,21.849c24.334,6.928 51.708,4.326 73.419,-9.058c16.609,-10.244 30.359,-28.138 29.709,-47.325c-0.026,-0.697 -0.065,-1.394 -0.135,-2.09c-0.046,-0.617 -0.114,-1.212 -0.196,-1.821c-1.173,-8.519 -5.161,-17.248 -2.353,-25.387c3.476,-10.024 15.459,-14.106 22.064,-22.413c7.895,-9.918 6.759,-24.44 1.295,-36.016c-0.293,-0.628 -0.594,-1.248 -0.916,-1.846c-0.045,-0.101 -0.097,-0.195 -0.15,-0.288c-6.355,-11.882 -16.428,-21.271 -24.718,-31.895c-4.605,-5.908 -8.75,-12.586 -11.157,-19.654c-0.214,-0.651 -0.427,-1.301 -0.612,-1.967c-1.474,-5.019 -2.021,-10.228 -1.187,-15.458c1.998,-12.543 11.489,-22.589 21.777,-30.031c9.354,-6.773 19.755,-12.132 28.583,-19.529c0.774,-0.651 1.556,-1.325 2.301,-2.02c0.1,-0.074 0.194,-0.17 0.287,-0.251c15.249,-14.067 23.304,-35.548 21.054,-56.17c-0.535,-4.911 -1.769,-9.941 -3.867,-14.45c-0.338,-0.728 -0.705,-1.442 -1.09,-2.147c-5.696,-10.42 -26.901,-7.067 -36.306,-5.655c-15.213,2.284 -30.555,8.719 -42.557,18.713c-4.098,3.414 -7.52,7.168 -10.427,11.205z"/>
      </g>
      <path id="svg_20" fill="#E5E6EB" d="m1519.61799,367.84896c11.389,-18.322 28.226,-32.566 44.525,-46.358c9.25,-7.833 18.816,-15.932 27.289,-24.675c3.275,-3.379 6.656,-7.414 9.254,-11.793c0.381,0.699 0.749,1.412 1.087,2.141c-2.587,4.117 -5.769,7.887 -8.865,11.082c-8.544,8.817 -18.146,16.953 -27.439,24.815c-16.5,13.956 -33.559,28.399 -44.784,46.98c-0.354,0.573 -0.701,1.166 -1.041,1.753c-0.078,0.139 -0.156,0.264 -0.226,0.411c-1.69,2.954 -3.219,5.979 -4.588,9.06c6.241,0.869 12.504,-1.475 16.835,-3.73c3.33,-1.738 6.529,-3.888 9.628,-5.964c2.474,-1.667 5.033,-3.378 7.676,-4.894c10.614,-6.11 23.001,-8.957 35.33,-8.642c-0.745,0.695 -1.526,1.368 -2.301,2.02l-0.007,0.007c-11.189,0.06 -22.349,2.836 -31.998,8.393c-2.578,1.479 -5.109,3.176 -7.561,4.82c-3.142,2.106 -6.385,4.285 -9.823,6.076c-4.735,2.479 -11.656,5.029 -18.635,3.86c-4.358,10.313 -7.122,21.227 -8.944,32.423c-0.12,0.685 -0.225,1.384 -0.323,2.076c-1.141,7.407 -1.88,14.947 -2.415,22.512c8.878,-7.035 19.208,-12.232 30.157,-15.056c0.13,-0.031 0.246,-0.062 0.376,-0.093c0.185,0.666 0.399,1.316 0.612,1.967c-0.159,0.032 -0.318,0.078 -0.47,0.116c-11.282,2.916 -21.898,8.409 -30.864,15.874c-0.461,7.193 -0.762,14.398 -1.057,21.553c-0.031,0.799 -0.069,1.592 -0.1,2.392c-0.033,0.698 -0.058,1.389 -0.091,2.087c-0.047,1.185 -0.101,2.378 -0.155,3.555c-0.445,10.056 -1.144,20.182 -2.419,30.12c25.307,-1.858 49.904,-10.142 71.181,-23.86c0.322,0.598 0.622,1.218 0.916,1.846c-21.652,13.913 -46.669,22.276 -72.384,24.097c-2.237,16.289 -6.131,32.016 -13.207,46.005c20.735,8.147 42.615,13.369 64.781,15.535c0.069,0.696 0.109,1.393 0.135,2.09c-22.544,-2.189 -44.789,-7.493 -65.867,-15.787c-3.479,6.543 -7.67,12.683 -12.755,18.3c-14.484,16.009 -33.558,25.238 -55.496,32.02c-0.25,-0.642 -0.449,-1.294 -0.612,-1.966c21.635,-6.69 40.406,-15.769 54.583,-31.432c4.914,-5.425 8.977,-11.36 12.358,-17.683c0.324,-0.615 0.642,-1.223 0.952,-1.839c6.949,-13.682 10.805,-29.103 13.032,-45.116c0.106,-0.684 0.196,-1.369 0.288,-2.068c1.303,-9.996 2.015,-20.209 2.466,-30.345c0.059,-1.316 0.111,-2.625 0.163,-3.948c-14.234,-3.177 -28.898,-4.197 -43.433,-3.031c-0.137,-0.434 -0.282,-0.86 -0.434,-1.294c-0.084,-0.239 -0.167,-0.477 -0.258,-0.708c14.796,-1.242 29.721,-0.241 44.216,2.946c0.026,-0.662 0.052,-1.338 0.085,-2.007c0.268,-6.507 0.543,-13.051 0.935,-19.596c0.058,-0.96 0.116,-1.92 0.188,-2.88c0.551,-8.408 1.342,-16.784 2.615,-25.022c-16.921,-5.881 -35.557,-6.759 -53.042,-2.786c0.488,-0.829 0.991,-1.643 1.531,-2.436c0.007,-0.008 0.007,-0.008 0.007,-0.008c17.165,-3.51 35.281,-2.508 51.835,3.161c1.903,-11.59 4.829,-22.891 9.478,-33.565l0.007,-0.022l0.014,-0.029l0.124,-0.467c0.022,0.007 0.044,0.013 0.073,0.013c1.516,-3.424 3.207,-6.793 5.11,-10.085c0.163,-0.286 0.326,-0.557 0.496,-0.837c-5.016,-10.297 -12.482,-19.393 -21.509,-26.466c0.193,-0.715 0.385,-1.43 0.584,-2.138c9.225,7.069 16.91,16.177 22.181,26.52z"/>
     </g>
     <path id="svg_21" fill="#E5E6EB" d="m1532.69199,570.50596c7.169,-0.162 12.087,6.749 17.119,11.858c5.209,5.289 12.251,9.334 19.665,8.959c7.414,-0.375 14.741,-6.319 14.815,-13.742c0.064,-6.42 -5.024,-11.893 -10.786,-14.726c-5.762,-2.833 -12.255,-3.708 -18.434,-5.455c-6.179,-1.747 -12.481,-4.719 -15.752,-10.244c-3.271,-5.525 -1.959,-14.029 3.949,-16.543c4.512,-1.92 9.85,0.24 13.415,3.607c3.565,3.367 5.915,7.791 8.908,11.675c11.783,15.284 34.61,20.805 52.075,12.595c6.745,-3.171 13.249,-9.699 11.844,-17.021c-1.764,-9.187 -13.1,-11.058 -20.875,-10.331c-8.977,0.839 -17.282,5.186 -26.302,5.717c-11.813,0.694 -33.144,-8.76 -30.974,-23.434c0.869,-5.878 9.362,-6.41 13.795,-5.367c5.336,1.256 9.893,4.515 14.696,7c22.823,11.807 49.353,5.673 67.098,-12.131c15.275,-15.326 -4.518,-20.993 -17.719,-22.173c-9.062,-0.81 -18.4,0.974 -26.331,5.495c-4.302,2.452 -8.374,5.68 -13.262,6.469s-10.884,-2.259 -10.877,-7.21c0.008,-5.157 5.887,-7.967 10.799,-9.537c8.846,-2.826 17.691,-5.652 26.536,-8.478c4.972,-1.589 10.106,-3.268 13.99,-6.755c3.884,-3.488 6.178,-9.316 4.01,-14.065c-2.435,-5.334 -9.528,-7.14 -15.161,-5.513c-5.633,1.627 -10.127,5.781 -14.395,9.802c-7.72,7.274 -15.44,14.549 -23.16,21.823c-3.156,2.974 -7.256,6.183 -11.373,4.823c-4.342,-1.434 -5.605,-7.018 -5.193,-11.572c0.879,-9.716 5.988,-18.492 11.329,-26.657c5.34,-8.164 11.137,-16.3 13.701,-25.713c2.564,-9.413 1.172,-20.629 -6.155,-27.07c-10.626,-9.341 -29.167,-3.295 -35.642,9.285c-6.475,12.579 -3.053,28.364 4.639,40.238c3.324,5.131 7.565,11.32 4.776,16.76c-2.885,5.627 -11.52,5.433 -16.544,1.592s-7.691,-9.916 -11.276,-15.125c-3.586,-5.209 -9.252,-10.045 -15.503,-9.089c-6.552,1.002 -10.702,8.62 -9.338,15.106c1.365,6.486 7.008,11.441 13.268,13.62c10.778,3.752 24.273,1.019 32.507,8.922c4.24,4.069 5.956,10.739 3.723,16.175c-2.233,5.436 -8.534,9.028 -14.26,7.707c-9.169,-2.116 -12.326,-13.647 -19.755,-19.422c-7.083,-5.506 -18.331,-4.592 -24.432,1.985s-6.169,17.862 -0.147,24.512c4.448,4.912 11.158,7 17.589,8.603c6.43,1.604 13.17,3.045 18.386,7.134c5.215,4.089 8.314,11.785 4.989,17.518c-4.593,7.919 -17.192,6.049 -23.851,-0.233c-6.66,-6.281 -10.1,-15.315 -16.418,-21.939c-6.319,-6.624 -18.299,-9.862 -24.084,-2.767c-5.536,6.789 -0.67,17.485 6.618,22.345c7.288,4.861 16.338,6.332 23.996,10.584c7.658,4.253 14.084,13.541 10.353,21.467c-3.284,6.977 -12.959,8.797 -20.124,5.945c-7.164,-2.852 -12.393,-9.009 -17.395,-14.878c-5.002,-5.869 -10.43,-11.915 -17.731,-14.396c-7.301,-2.48 -16.923,0.144 -19.474,7.421c-2.399,6.842 2.342,14.26 8.169,18.574c5.826,4.315 12.879,6.871 18.313,11.67c5.434,4.8 8.854,13.301 4.787,19.303c-4.326,6.384 -13.89,5.91 -21.218,3.508c-7.328,-2.403 -15.075,-6.049 -22.397,-3.628c-5.699,1.884 -9.883,7.638 -9.919,13.641c-0.036,6.002 4.08,11.806 9.756,13.758c9.064,3.117 20.55,-2.8 27.987,3.245c4.278,3.477 5.228,9.763 4.161,15.172c-1.067,5.408 -3.766,10.334 -5.647,15.516c-4.264,11.745 -3.894,25.875 3.868,35.667c7.762,9.792 23.898,12.895 33.103,4.445c7.062,-6.483 8.277,-17.21 7.185,-26.734c-1.092,-9.524 -4.017,-18.92 -3.446,-28.49c0.57,-9.569 5.963,-19.867 15.315,-21.974c6.461,-1.456 13.073,1.294 18.979,4.29c5.907,2.996 11.994,6.392 18.617,6.32c6.623,-0.072 13.724,-5.246 13.118,-11.841c-0.307,-3.336 -2.486,-6.249 -5.099,-8.345c-9.972,-7.999 -28.818,-8.918 -31.186,-24.361c-0.932,-6.055 2.731,-14.735 9.689,-14.892z"/>
     <g id="svg_22">
      <path id="svg_23" fill="#84A9FF" d="m1672.41799,563.10996c-0.386,0.702 -0.772,1.403 -1.158,2.094c-0.635,1.126 -1.27,2.253 -1.916,3.368c-14.523,25.216 -31.98,50.028 -36.017,78.854c-0.214,1.526 -0.386,3.075 -0.526,4.625c-0.074,0.721 -0.137,1.442 -0.189,2.174c-1.978,25.743 3.63,53.766 -11.509,74.304c-16.36,22.188 -48.212,23.829 -73.46,34.887c-3.549,1.553 -7.007,3.336 -10.331,5.327c-0.779,0.453 -1.547,0.918 -2.305,1.415c-16.568,10.487 -29.952,26.034 -37.612,44.112c-5.064,11.966 -7.255,24.573 -7.588,37.511c-0.212,8.518 2.276,17.336 -4.063,24.261c-8.063,8.777 -26.077,10.215 -41.503,9.318c-0.722,-0.042 -1.443,-0.093 -2.165,-0.146c-6.536,-0.481 -12.479,-1.345 -16.825,-2.209c-21.42,-4.234 -42.282,-18.95 -46.985,-40.269c-7.659,-34.703 28.692,-69.409 17.369,-103.102c-3.971,-11.794 -13.408,-21.385 -18.661,-32.448c-0.347,-0.732 -0.683,-1.464 -0.986,-2.207c-1.133,-2.75 -1.983,-5.6 -2.407,-8.611c-2.534,-18.163 12.112,-34.895 28.888,-42.323c14.111,-6.238 29.668,-7.775 44.978,-10.118c0.802,-0.129 1.615,-0.258 2.427,-0.386c2.081,-0.331 4.151,-0.685 6.223,-1.081c18.025,-3.39 36.92,-10.587 46.541,-26.216c9.373,-15.237 7.789,-35.003 15.588,-51.113c6.851,-14.151 20.081,-23.693 34.948,-29.576l0.011,0c0.665,-0.262 1.341,-0.513 2.017,-0.754c5.254,-1.949 10.679,-3.451 16.082,-4.544c21.494,-4.374 43.78,-3.828 65.237,-8.451c20.252,-4.355 40.852,-14.709 50.539,-32.763c0.59,-1.052 1.116,-2.149 1.61,-3.258c0.127,0.478 0.244,0.945 0.36,1.423c6.235,25.678 -3.744,52.389 -16.612,75.902z"/>
      <path id="svg_24" fill="#E5E6EB" d="m1668.91099,536.73096c14.827,-15.033 22.212,-33.356 20.12,-49.522c-0.117,-0.478 -0.233,-0.945 -0.36,-1.423c-0.494,1.108 -1.021,2.205 -1.61,3.258c1.355,15.131 -5.81,32.09 -19.693,46.178c-7.502,7.606 -16.256,14.055 -24.99,20.171l-0.011,0c-0.661,0.478 -1.32,0.935 -1.98,1.391c-0.902,0.633 -1.793,1.246 -2.684,1.868c-5.115,3.561 -10.394,7.224 -15.419,11.069c-9.918,7.572 -19.071,15.985 -27.635,24.921c-17.293,-16.625 -30.892,-37.347 -39.446,-59.839c-0.675,0.241 -1.351,0.492 -2.017,0.754c8.665,22.798 22.45,43.794 39.974,60.641c-8.578,9.066 -16.555,18.654 -24.139,28.459c-0.447,0.57 -0.884,1.152 -1.32,1.722c-7.743,10.091 -15.059,20.378 -22.146,30.542c-8.714,12.481 -17.504,25.328 -26.099,38.579c-27.374,-10.568 -51.581,-28.851 -69.581,-51.958c-0.813,0.129 -1.625,0.258 -2.427,0.386c18.22,23.74 42.876,42.552 70.803,53.427c-8.665,13.433 -17.115,27.27 -25.08,41.564c-0.363,0.659 -0.726,1.308 -1.09,1.966c-4.518,8.184 -8.879,16.513 -13.017,25.009c-5.819,-0.656 -11.891,-3.131 -17.464,-7.233c-7.393,-5.435 -13.219,-12.91 -18.889,-20.197c-5.43,-6.968 -11.59,-14.873 -19.431,-20.514c-13.596,-9.792 -31.252,-11.97 -43.336,-12.754c-1.314,-0.079 -2.628,-0.158 -3.954,-0.216c0.303,0.742 0.64,1.474 0.986,2.207c0.938,0.047 1.885,0.095 2.822,0.164c11.826,0.767 29.074,2.89 42.225,12.356c7.586,5.462 13.642,13.235 19.02,20.147c5.722,7.342 11.642,14.938 19.278,20.553c5.637,4.147 11.781,6.721 17.747,7.532c-3.443,7.124 -6.738,14.381 -9.831,21.741c-13.801,32.724 -22.542,64.69 -26.16,95.535c0.721,0.052 1.443,0.104 2.165,0.146c3.601,-30.619 12.292,-62.338 25.99,-94.849c3.196,-7.573 6.572,-15.011 10.139,-22.348c0.321,-0.703 0.664,-1.406 1.007,-2.109c3.942,-8.027 8.075,-15.93 12.356,-23.689c12.38,10.848 26.257,20.216 41.274,27.791c0.758,-0.497 1.526,-0.962 2.305,-1.415c-15.34,-7.584 -29.687,-17.116 -42.478,-28.353c8.069,-14.539 16.666,-28.61 25.488,-42.254c0.395,-0.626 0.8,-1.24 1.194,-1.855c8.494,-13.092 17.182,-25.78 25.795,-38.124c7.119,-10.184 14.458,-20.502 22.212,-30.605c19.265,12.385 40.747,21.411 63.088,26.673c0.052,-0.732 0.115,-1.453 0.189,-2.174c-21.943,-5.198 -43.031,-14.072 -61.968,-26.211c7.505,-9.699 15.404,-19.182 23.892,-28.142c0.489,-0.526 0.989,-1.052 1.489,-1.567c8.496,-8.862 17.561,-17.192 27.369,-24.691c4.992,-3.812 10.26,-7.476 15.353,-11.005c1.21,-0.841 2.42,-1.692 3.641,-2.543c8.902,4.3 18.729,6.728 28.683,7.313c0.386,-0.691 0.772,-1.392 1.158,-2.094c-9.613,-0.425 -19.144,-2.639 -27.817,-6.632c8.482,-5.971 16.963,-12.288 24.31,-19.747z"/>
     </g>
    </g>
    <g id="svg_25">
     <rect id="svg_26" fill="#155BCD" height="559.74" width="1024.58" y="432.90996" x="391.70999"/>
     <path id="svg_27" fill="#1F86C0" d="m1445.93999,357.50996l-1083.88,0c-25.27,0 -45.75,20.49 -45.75,45.75l0,656.97c0,25.27 20.48,45.76 45.75,45.76l1083.88,0c25.27,0 45.75,-20.49 45.75,-45.76l0,-656.97c0,-25.26 -20.48,-45.75 -45.75,-45.75zm4.62,669.41l-1093.13,0l0,-628.28l1093.13,0l0,628.28z"/>
     <rect id="svg_28" fill="#E5E6EB" height="559.74" width="1024.58" y="432.90996" x="391.70999"/>
     <path id="svg_29" fill="#84A9FF" d="m357.42999,398.63996l0,628.28l1093.13,0l0,-628.28l-1093.13,0zm1058.86,594.01l-1024.58,0l0,-559.74l1024.58,0l0,559.74z"/>
     <circle id="svg_30" fill="#050F64" r="25.82498" cy="1068.64196" cx="903.99999"/>
     <rect id="svg_31" fill="#050F64" height="132.131" width="261.078" y="1105.98596" x="773.46099"/>
     <polygon id="svg_32" fill="#1F86C0" points="1313.6579585075378,1322.489013671875 494.3419795036316,1322.489013671875 533.0789790153503,1234.9329833984375 1274.9210200309753,1234.9329833984375 "/>
    </g>
    <path id="svg_33" fill="#FFFFFF" d="m1203.64999,357.47996l0,921.23l-604.38,0l0,-921.23c0,-25.01 -20.27,-45.31 -45.28,-45.31l604.36,0l0,0.01l0.01,-0.01c25.02,0 45.29,20.3 45.29,45.31z"/>
    <g id="svg_34">
     <path id="svg_35" fill="#84A9FF" d="m1125.69999,312.16996c18.79,4.83 32.48,26.43 32.48,45.32l0.47,876.22l-514.38,0l-0.46,-876.23c0,-16.52 -8.31,-34.26 -21.51,-45.31l-20.98,0c18.8,4.83 32.49,26.43 32.49,45.32l0.47,886.22l534.37,0l-0.47,-886.23c0,-16.52 -8.31,-34.26 -21.51,-45.31l-20.97,0z"/>
    </g>
    <polygon id="svg_36" fill="#FFFFFF" points="553.9760127067566,312.17498779296875 553.9869990348816,312.17498779296875 553.9760127067566,312.17498779296875 "/>
    <path id="svg_37" fill="#1D7196" d="m599.27399,357.48396l-90.597,0c0,-25.013 20.274,-45.309 45.309,-45.309c25.014,0 45.288,20.296 45.288,45.309z"/>
    <g id="svg_38">
     <g id="svg_39">
      <g id="svg_40">
       <path id="svg_41" fill="#84A9FF" d="m809.56999,485.36696l-112.245,0l0,-112.245l112.245,0l0,112.245zm-102.711,-9.533l93.178,0l0,-93.178l-93.178,0l0,93.178z"/>
      </g>
      <g id="svg_42">
       <rect id="svg_43" fill="#1F86C0" height="9.533" width="278.25" y="388.99096" x="830.26599"/>
      </g>
      <g id="svg_44">
       <rect id="svg_45" fill="#84A9FF" height="9.533" width="278.25" y="424.47796" x="830.26599"/>
      </g>
      <g id="svg_46">
       <rect id="svg_47" fill="#84A9FF" height="9.533" width="195.587" y="459.96496" x="830.26599"/>
      </g>
     </g>
     <g id="svg_48">
      <g id="svg_49">
       <path id="svg_50" fill="#84A9FF" d="m809.56999,628.55196l-112.245,0l0,-112.245l112.245,0l0,112.245zm-102.711,-9.534l93.178,0l0,-93.178l-93.178,0l0,93.178z"/>
      </g>
      <g id="svg_51">
       <rect id="svg_52" fill="#155BCD" height="9.533" width="278.25" y="532.17496" x="830.26599"/>
      </g>
      <g id="svg_53">
       <rect id="svg_54" fill="#84A9FF" height="9.533" width="278.25" y="567.66196" x="830.26599"/>
      </g>
      <g id="svg_55">
       <rect id="svg_56" fill="#84A9FF" height="9.533" width="195.587" y="603.14896" x="830.26599"/>
      </g>
      <g id="svg_57">
       <path id="svg_58" fill="#FFCA32" d="m750.58599,609.15696l-33.934,-22.808c-2.185,-1.469 -2.766,-4.43 -1.297,-6.615c1.47,-2.185 4.43,-2.766 6.615,-1.297l26.095,17.54l38.661,-56.381c1.489,-2.172 4.457,-2.723 6.627,-1.235c2.171,1.489 2.725,4.456 1.235,6.627l-44.002,64.169z"/>
      </g>
     </g>
     <g id="svg_59">
      <g id="svg_60">
       <path id="svg_61" fill="#84A9FF" d="m809.56999,771.73596l-112.245,0l0,-112.245l112.245,0l0,112.245zm-102.711,-9.534l93.178,0l0,-93.178l-93.178,0l0,93.178z"/>
      </g>
      <g id="svg_62">
       <rect id="svg_63" fill="#155BCD" height="9.533" width="278.25" y="675.35896" x="830.26599"/>
      </g>
      <g id="svg_64">
       <rect id="svg_65" fill="#84A9FF" height="9.533" width="278.25" y="710.84596" x="830.26599"/>
      </g>
      <g id="svg_66">
       <rect id="svg_67" fill="#84A9FF" height="9.533" width="195.587" y="746.33396" x="830.26599"/>
      </g>
      <g id="svg_68">
       <path id="svg_69" fill="#FFCA32" d="m750.58599,752.34096l-33.934,-22.808c-2.185,-1.469 -2.766,-4.431 -1.297,-6.615c1.47,-2.185 4.43,-2.766 6.615,-1.297l26.095,17.54l38.661,-56.381c1.489,-2.172 4.457,-2.723 6.627,-1.235c2.171,1.489 2.725,4.456 1.235,6.627l-44.002,64.169z"/>
      </g>
     </g>
     <g id="svg_70">
      <g id="svg_71">
       <path id="svg_72" fill="#84A9FF" d="m809.56999,914.91996l-112.245,0l0,-112.245l112.245,0l0,112.245zm-102.711,-9.534l93.178,0l0,-93.178l-93.178,0l0,93.178z"/>
      </g>
      <g id="svg_73">
       <rect id="svg_74" fill="#1F86C0" height="9.533" width="278.25" y="818.54296" x="830.26599"/>
      </g>
      <g id="svg_75">
       <rect id="svg_76" fill="#84A9FF" height="9.533" width="278.25" y="854.02996" x="830.26599"/>
      </g>
      <g id="svg_77">
       <rect id="svg_78" fill="#84A9FF" height="9.533" width="195.587" y="889.51796" x="830.26599"/>
      </g>
      <g id="svg_79">
       <path id="svg_80" fill="#FFCA32" d="m750.58599,895.52596l-33.934,-22.808c-2.185,-1.469 -2.766,-4.431 -1.297,-6.615c1.47,-2.185 4.43,-2.766 6.615,-1.297l26.095,17.54l38.661,-56.38c1.489,-2.172 4.457,-2.723 6.627,-1.235c2.171,1.489 2.725,4.456 1.235,6.627l-44.002,64.168z"/>
      </g>
     </g>
     <g id="svg_81">
      <g id="svg_82">
       <path id="svg_83" fill="#84A9FF" d="m809.56999,1058.10396l-112.245,0l0,-112.245l112.245,0l0,112.245zm-102.711,-9.533l93.178,0l0,-93.178l-93.178,0l0,93.178z"/>
      </g>
      <g id="svg_84">
       <rect id="svg_85" fill="#1F86C0" height="9.533" width="278.25" y="961.72696" x="830.26599"/>
      </g>
      <g id="svg_86">
       <rect id="svg_87" fill="#84A9FF" height="9.533" width="278.25" y="997.21496" x="830.26599"/>
      </g>
      <g id="svg_88">
       <rect id="svg_89" fill="#84A9FF" height="9.533" width="195.587" y="1032.70196" x="830.26599"/>
      </g>
     </g>
     <g id="svg_90">
      <g id="svg_91">
       <path id="svg_92" fill="#84A9FF" d="m809.56999,1201.28796l-112.245,0l0,-112.245l112.245,0l0,112.245zm-102.711,-9.533l93.178,0l0,-93.178l-93.178,0l0,93.178z"/>
      </g>
      <g id="svg_93">
       <rect id="svg_94" fill="#1F86C0" height="9.533" width="278.25" y="1104.91096" x="830.26599"/>
      </g>
      <g id="svg_95">
       <rect id="svg_96" fill="#84A9FF" height="9.533" width="278.25" y="1140.39896" x="830.26599"/>
      </g>
      <g id="svg_97">
       <rect id="svg_98" fill="#84A9FF" height="9.533" width="195.587" y="1175.88596" x="830.26599"/>
      </g>
      <g id="svg_99">
       <path id="svg_100" fill="#FFCA32" d="m750.58599,1181.89396l-33.934,-22.808c-2.185,-1.469 -2.766,-4.431 -1.297,-6.615c1.47,-2.185 4.43,-2.766 6.615,-1.297l26.095,17.54l38.661,-56.381c1.489,-2.172 4.457,-2.723 6.627,-1.235c2.171,1.489 2.725,4.456 1.235,6.627l-44.002,64.169z"/>
      </g>
     </g>
    </g>
    <g id="svg_101">
     <g id="svg_102">
      <path id="svg_103" fill="#FFFFFF" d="m1006.47399,505.04396l0,182.436c0,24.16 -19.59,43.74 -43.74,43.74l-511.75,0c-24.15,0 -43.74,-19.58 -43.74,-43.74l0,-182.436c0,-24.16 19.59,-43.74 43.74,-43.74l511.75,0c24.15,0 43.74,19.58 43.74,43.74z"/>
      <path id="svg_104" fill="#1F86C0" d="m1006.47399,505.04396l0,28.26l-599.23,0l0,-28.26c0,-24.16 19.59,-43.74 43.74,-43.74l511.75,0c24.15,0 43.74,19.58 43.74,43.74z"/>
     </g>
     <g id="svg_105">
      <g id="svg_106">
       <rect id="svg_107" fill="#1F86C0" height="4.527" width="86.214" y="569.56096" x="541.85099"/>
      </g>
      <g id="svg_108">
       <rect id="svg_109" fill="#84A9FF" height="4.527" width="132.134" y="586.41296" x="541.85099"/>
      </g>
      <g id="svg_110">
       <rect id="svg_111" fill="#84A9FF" height="4.527" width="132.134" y="603.26496" x="541.85099"/>
      </g>
      <path id="svg_112" fill="#1F86C0" d="m505.37099,562.02596c-14.719,0 -26.651,11.932 -26.651,26.651c0,14.719 11.932,26.651 26.651,26.651s26.651,-11.932 26.651,-26.651c0,-14.719 -11.932,-26.651 -26.651,-26.651zm0,49.302c-12.49,0 -22.651,-10.162 -22.651,-22.651c0,-12.49 10.161,-22.651 22.651,-22.651c12.49,0 22.651,10.161 22.651,22.651c0,12.49 -10.161,22.651 -22.651,22.651z"/>
      <circle id="svg_113" fill="#FFCA32" r="15.31297" cy="588.67696" cx="505.37099"/>
     </g>
     <g id="svg_114">
      <g id="svg_115">
       <rect id="svg_116" fill="#1F86C0" height="4.527" width="86.214" y="646.67296" x="541.85099"/>
      </g>
      <g id="svg_117">
       <rect id="svg_118" fill="#84A9FF" height="4.527" width="132.134" y="663.52496" x="541.85099"/>
      </g>
      <g id="svg_119">
       <rect id="svg_120" fill="#84A9FF" height="4.527" width="132.134" y="680.37696" x="541.85099"/>
      </g>
      <path id="svg_121" fill="#1F86C0" d="m505.37099,639.13796c-14.719,0 -26.651,11.932 -26.651,26.651c0,14.719 11.932,26.651 26.651,26.651s26.651,-11.932 26.651,-26.651c0,-14.719 -11.932,-26.651 -26.651,-26.651zm0,49.302c-12.49,0 -22.651,-10.161 -22.651,-22.651c0,-12.49 10.161,-22.651 22.651,-22.651c12.49,0 22.651,10.161 22.651,22.651c0,12.49 -10.161,22.651 -22.651,22.651z"/>
     </g>
     <g id="svg_122">
      <g id="svg_123">
       <rect id="svg_124" fill="#155BCD" height="4.527" width="86.214" y="569.56096" x="802.86299"/>
      </g>
      <g id="svg_125">
       <rect id="svg_126" fill="#84A9FF" height="4.527" width="132.134" y="586.41296" x="802.86299"/>
      </g>
      <g id="svg_127">
       <rect id="svg_128" fill="#84A9FF" height="4.527" width="132.134" y="603.26496" x="802.86299"/>
      </g>
      <circle id="svg_129" fill="#FFCA32" r="15.31299" cy="588.67696" cx="766.38299"/>
     </g>
     <g id="svg_130">
      <g id="svg_131">
       <rect id="svg_132" fill="#155BCD" height="4.527" width="86.214" y="646.67296" x="802.86299"/>
      </g>
      <g id="svg_133">
       <rect id="svg_134" fill="#84A9FF" height="4.527" width="132.134" y="663.52496" x="802.86299"/>
      </g>
      <g id="svg_135">
       <rect id="svg_136" fill="#84A9FF" height="4.527" width="132.134" y="680.37696" x="802.86299"/>
      </g>
      <g id="svg_137">
       <path id="svg_138" fill="#155BCD" d="m766.38299,615.32796c14.719,0 26.651,-11.932 26.651,-26.651c0,-14.719 -11.932,-26.651 -26.651,-26.651c-14.719,0 -26.651,11.932 -26.651,26.651c0,14.719 11.933,26.651 26.651,26.651zm0,-49.302c12.49,0 22.651,10.161 22.651,22.651c0,12.49 -10.161,22.651 -22.651,22.651c-12.49,0 -22.651,-10.162 -22.651,-22.651c0,-12.49 10.162,-22.651 22.651,-22.651z"/>
       <path id="svg_139" fill="#155BCD" d="m766.38299,639.13796c-14.719,0 -26.651,11.932 -26.651,26.651c0,14.719 11.932,26.651 26.651,26.651c14.719,0 26.651,-11.932 26.651,-26.651c0.001,-14.719 -11.932,-26.651 -26.651,-26.651zm0,49.302c-12.49,0 -22.651,-10.161 -22.651,-22.651c0,-12.49 10.161,-22.651 22.651,-22.651c12.49,0 22.651,10.161 22.651,22.651c0.001,12.49 -10.161,22.651 -22.651,22.651z"/>
      </g>
      <circle id="svg_140" fill="#FFCA32" r="15.31299" cy="665.78896" cx="766.38299"/>
     </g>
    </g>
    <g id="svg_141">
     <g id="svg_142">
      <path id="svg_143" fill="#FFFFFF" d="m1390.65999,654.56096l0,182.436c0,24.16 -19.59,43.74 -43.74,43.74l-301.468,0c-24.15,0 -43.74,-19.58 -43.74,-43.74l0,-182.436c0,-24.16 19.59,-43.74 43.74,-43.74l301.468,0c24.15,0 43.74,19.58 43.74,43.74z"/>
      <path id="svg_144" fill="#1F86C0" d="m1390.65999,654.56096l0,28.26l-388.948,0l0,-28.26c0,-24.16 19.59,-43.74 43.74,-43.74l301.468,0c24.15,0 43.74,19.58 43.74,43.74z"/>
     </g>
     <g id="svg_145">
      <g id="svg_146">
       <g id="svg_147">
        <path id="svg_148" fill="#155BCD" d="m1126.48999,764.84496l-53.302,0l0,-53.302l53.302,0l0,53.302zm-48.775,-4.527l44.248,0l0,-44.248l-44.248,0l0,44.248z"/>
       </g>
       <g id="svg_149">
        <path id="svg_150" fill="#FFCA32" d="m1098.47999,755.63496l-16.115,-10.831c-1.038,-0.697 -1.313,-2.104 -0.616,-3.141c0.698,-1.038 2.104,-1.313 3.141,-0.616l12.392,8.329l18.359,-26.774c0.707,-1.031 2.117,-1.293 3.147,-0.587c1.031,0.707 1.294,2.116 0.587,3.147l-20.895,30.473z"/>
       </g>
      </g>
      <g id="svg_151">
       <g id="svg_152">
        <path id="svg_153" fill="#1F86C0" d="m1126.48999,841.52396l-53.302,0l0,-53.302l53.302,0l0,53.302zm-48.775,-4.527l44.248,0l0,-44.248l-44.248,0l0,44.248z"/>
       </g>
      </g>
      <path id="svg_154" fill="#1F86C0" d="m1233.32199,711.54296l0,53.302l53.302,0l0,-53.302l-53.302,0zm48.775,48.775l-44.248,0l0,-44.249l44.248,0l0,44.249z"/>
      <g id="svg_155">
       <g id="svg_156">
        <path id="svg_157" fill="#1F86C0" d="m1286.62399,841.52396l-53.302,0l0,-53.302l53.302,0l0,53.302zm-48.775,-4.527l44.248,0l0,-44.248l-44.248,0l0,44.248z"/>
       </g>
      </g>
      <path id="svg_158" fill="#1F86C0" d="m1302.13499,748.24296c0,2.748 1.421,4.121 4.262,4.121l12.786,0l0,5.495l-12.786,0c-6.63,0 -9.945,-3.205 -9.945,-9.616l0,-19.231c0,-6.41 3.315,-9.616 9.945,-9.616l12.786,0l0,5.495l-12.786,0c-2.841,0 -4.262,1.374 -4.262,4.121l0,19.231z"/>
      <path id="svg_159" fill="#1F86C0" d="m1312.07999,796.07496c6.63,0 9.945,3.205 9.945,9.616l0,19.231c0,6.411 -3.315,9.616 -9.945,9.616l-15.627,0l0,-38.463l15.627,0zm4.262,9.615c0,-2.747 -1.42,-4.121 -4.262,-4.121l-9.945,0l0,27.474l9.945,0c2.842,0 4.262,-1.373 4.262,-4.121l0,-19.232z"/>
     </g>
     <path id="svg_160" fill="#155BCD" d="m1167.57399,757.18596l-5.683,0l-2.643,-8.242l-14.604,0l-2.643,8.242l-5.683,0l11.934,-38.463l7.388,0l11.934,38.463zm-21.197,-13.737l11.138,0l-5.569,-19.231l-5.569,19.231z"/>
     <path id="svg_161" fill="#1F86C0" d="m1151.90399,795.64196c6.63,0 9.945,3.206 9.945,9.616l0,2.748c0,4.029 -1.61,6.319 -4.83,6.868c3.22,0.549 4.83,2.839 4.83,6.869l0,2.747c0,6.411 -3.315,9.616 -9.945,9.616l-15.627,0l0,-38.463l15.627,0l0,-0.001zm-9.945,5.494l0,10.99l9.945,0c2.842,0 4.262,-1.374 4.262,-4.121l0,-2.748c0,-2.747 -1.42,-4.121 -4.262,-4.121l-9.945,0zm0,16.485l0,10.989l9.945,0c2.842,0 4.262,-1.374 4.262,-4.121l0,-2.747c0,-2.748 -1.42,-4.121 -4.262,-4.121l-9.945,0z"/>
    </g>
    <g id="svg_162">
     <g id="svg_163">
      <path id="svg_164" fill="#FFFFFF" d="m1260.27599,472.69996l0,260.9c0,24.16 -19.59,43.74 -43.74,43.74l-511.75,0c-24.15,0 -43.74,-19.58 -43.74,-43.74l0,-260.9c0,-24.16 19.59,-43.74 43.74,-43.74l511.75,0c24.15,-0.001 43.74,19.58 43.74,43.74z"/>
      <path id="svg_165" fill="#1F86C0" d="m1260.27599,472.69996l0,28.26l-599.23,0l0,-28.26c0,-24.16 19.59,-43.74 43.74,-43.74l511.75,0c24.15,-0.001 43.74,19.58 43.74,43.74z"/>
     </g>
     <g id="svg_166">
      <g id="svg_167">
       <g id="svg_168">
        <path id="svg_169" fill="#1F86C0" d="m785.82499,582.98396l-53.302,0l0,-53.302l53.302,0l0,53.302zm-48.775,-4.527l44.248,0l0,-44.248l-44.248,0l0,44.248z"/>
       </g>
       <g id="svg_170">
        <rect id="svg_171" fill="#1F86C0" height="4.527" width="86.214" y="537.21696" x="795.65299"/>
       </g>
       <g id="svg_172">
        <rect id="svg_173" fill="#84A9FF" height="4.527" width="132.134" y="554.06896" x="795.65299"/>
       </g>
       <g id="svg_174">
        <rect id="svg_175" fill="#84A9FF" height="4.527" width="132.134" y="570.92096" x="795.65299"/>
       </g>
      </g>
      <g id="svg_176">
       <g id="svg_177">
        <path id="svg_178" fill="#1F86C0" d="m785.82499,659.66296l-53.302,0l0,-53.302l53.302,0l0,53.302zm-48.775,-4.527l44.248,0l0,-44.248l-44.248,0l0,44.248z"/>
       </g>
       <g id="svg_179">
        <rect id="svg_180" fill="#1F86C0" height="4.527" width="86.214" y="613.89596" x="795.65299"/>
       </g>
       <g id="svg_181">
        <rect id="svg_182" fill="#84A9FF" height="4.527" width="132.134" y="630.74796" x="795.65299"/>
       </g>
       <g id="svg_183">
        <rect id="svg_184" fill="#84A9FF" height="4.527" width="132.134" y="647.59996" x="795.65299"/>
       </g>
       <g id="svg_185">
        <path id="svg_186" fill="#FFCA32" d="m757.81499,650.45296l-16.115,-10.831c-1.038,-0.697 -1.313,-2.104 -0.616,-3.141c0.698,-1.038 2.104,-1.314 3.141,-0.616l12.392,8.329l18.359,-26.774c0.707,-1.031 2.116,-1.293 3.147,-0.587c1.031,0.707 1.294,2.116 0.587,3.147l-20.895,30.473z"/>
       </g>
      </g>
      <g id="svg_187">
       <g id="svg_188">
        <path id="svg_189" fill="#1F86C0" d="m785.82499,736.34196l-53.302,0l0,-53.302l53.302,0l0,53.302zm-48.775,-4.527l44.248,0l0,-44.248l-44.248,0l0,44.248z"/>
       </g>
       <g id="svg_190">
        <rect id="svg_191" fill="#1F86C0" height="4.527" width="86.214" y="690.57496" x="795.65299"/>
       </g>
       <g id="svg_192">
        <rect id="svg_193" fill="#84A9FF" height="4.527" width="132.134" y="707.42696" x="795.65299"/>
       </g>
       <g id="svg_194">
        <rect id="svg_195" fill="#84A9FF" height="4.527" width="132.134" y="724.27896" x="795.65299"/>
       </g>
      </g>
      <g id="svg_196">
       <g id="svg_197">
        <path id="svg_198" fill="#1F86C0" d="m1046.83699,582.98396l-53.302,0l0,-53.302l53.302,0l0,53.302zm-48.775,-4.527l44.248,0l0,-44.248l-44.248,0l0,44.248z"/>
       </g>
       <g id="svg_199">
        <rect id="svg_200" fill="#1F86C0" height="4.527" width="86.214" y="537.21696" x="1056.66599"/>
       </g>
       <g id="svg_201">
        <rect id="svg_202" fill="#84A9FF" height="4.527" width="132.134" y="554.06896" x="1056.66599"/>
       </g>
       <g id="svg_203">
        <rect id="svg_204" fill="#84A9FF" height="4.527" width="132.134" y="570.92096" x="1056.66599"/>
       </g>
       <g id="svg_205">
        <path id="svg_206" fill="#FFCA32" d="m1018.82699,573.77396l-16.114,-10.831c-1.038,-0.697 -1.313,-2.104 -0.616,-3.141c0.698,-1.038 2.104,-1.313 3.141,-0.616l12.392,8.329l18.359,-26.774c0.707,-1.031 2.117,-1.293 3.147,-0.587c1.031,0.707 1.294,2.116 0.587,3.147l-20.896,30.473z"/>
       </g>
      </g>
      <g id="svg_207">
       <g id="svg_208">
        <path id="svg_209" fill="#1F86C0" d="m1046.83699,659.66296l-53.302,0l0,-53.302l53.302,0l0,53.302zm-48.775,-4.527l44.248,0l0,-44.248l-44.248,0l0,44.248z"/>
       </g>
       <g id="svg_210">
        <rect id="svg_211" fill="#1F86C0" height="4.527" width="86.214" y="613.89596" x="1056.66599"/>
       </g>
       <g id="svg_212">
        <rect id="svg_213" fill="#84A9FF" height="4.527" width="132.134" y="630.74796" x="1056.66599"/>
       </g>
       <g id="svg_214">
        <rect id="svg_215" fill="#84A9FF" height="4.527" width="132.134" y="647.59996" x="1056.66599"/>
       </g>
      </g>
      <g id="svg_216">
       <g id="svg_217">
        <path id="svg_218" fill="#1F86C0" d="m1046.83699,736.34196l-53.302,0l0,-53.302l53.302,0l0,53.302zm-48.775,-4.527l44.248,0l0,-44.248l-44.248,0l0,44.248z"/>
       </g>
       <g id="svg_219">
        <rect id="svg_220" fill="#1F86C0" height="4.527" width="86.214" y="690.57496" x="1056.66599"/>
       </g>
       <g id="svg_221">
        <rect id="svg_222" fill="#84A9FF" height="4.527" width="132.134" y="707.42696" x="1056.66599"/>
       </g>
       <g id="svg_223">
        <rect id="svg_224" fill="#84A9FF" height="4.527" width="132.134" y="724.27896" x="1056.66599"/>
       </g>
       <g id="svg_225">
        <path id="svg_226" fill="#FFCA32" d="m1018.82699,727.13196l-16.114,-10.831c-1.038,-0.697 -1.313,-2.104 -0.616,-3.141c0.698,-1.038 2.104,-1.313 3.141,-0.616l12.392,8.329l18.359,-26.774c0.707,-1.031 2.117,-1.293 3.147,-0.587c1.031,0.707 1.294,2.116 0.587,3.147l-20.896,30.473z"/>
       </g>
      </g>
     </g>
    </g>
    <g id="svg_227">
     <g id="svg_228">
      <g id="svg_229">
       <path id="svg_230" fill="#1F86C0" d="m141.54099,1235.30296c-8.338,8.074 -13.488,19.234 -13.488,31.554c0,24.657 20.607,44.642 46.031,44.642l397.306,0l0,10.99l-398.704,0c-30.676,0 -55.623,-24.955 -55.623,-55.631c0,-14.861 5.781,-28.826 16.293,-39.33c10.504,-10.504 24.469,-16.293 39.33,-16.293l398.705,0l0,10.99l-397.306,0c-12.704,0 -24.222,4.996 -32.544,13.078z"/>
      </g>
      <path id="svg_231" fill="#FFFFFF" d="m231.45099,1029.45496c-9.649,0 -18.387,4.02 -24.709,10.52c-6.325,6.497 -10.236,15.475 -10.236,25.394c0,19.837 15.646,35.916 34.946,35.916l323.405,0l0,-71.829l-323.406,0l0,-0.001z"/>
      <g id="svg_232">
       <path id="svg_233" fill="#FFCA32" d="m185.22799,1133.91396c-7.281,7.025 -11.791,16.745 -11.791,27.47c0,21.46 18.024,38.853 40.251,38.853l357.704,0l0,10.998l-359.103,0c-27.488,0 -49.842,-22.363 -49.842,-49.851c0,-13.318 5.184,-25.833 14.596,-35.246c9.413,-9.413 21.928,-14.596 35.246,-14.596l359.102,0l0,10.99l-357.703,0c-11.11,-0.001 -21.179,4.348 -28.46,11.382z"/>
      </g>
      <path id="svg_234" fill="#FD333E" d="m233.81899,1029.45496l337.569,0l0,-10.995l-338.97,0c-12.532,0 -24.312,4.88 -33.167,13.738c-8.862,8.858 -13.742,20.638 -13.742,33.17c0,25.867 21.043,46.911 46.909,46.911l338.97,0l0,-10.995l-337.569,0c-20.608,0 -37.314,-16.079 -37.314,-35.916c0,-9.918 4.177,-18.896 10.93,-25.394c6.751,-6.499 16.081,-10.519 26.384,-10.519z"/>
      <path id="svg_235" fill="#FFFFFF" d="m174.08699,1222.22796c-12.71,0 -24.221,4.996 -32.549,13.074c-8.331,8.075 -13.484,19.232 -13.484,31.558c0,24.653 20.609,44.635 46.033,44.635l380.768,0l0,-89.267l-380.768,0z"/>
      <path id="svg_236" fill="#FFFFFF" d="m213.68999,1122.53296c-11.114,0 -21.179,4.349 -28.461,11.38c-7.285,7.029 -11.791,16.741 -11.791,27.471c0,21.46 18.021,38.854 40.252,38.854l341.166,0l0,-77.706l-341.166,0l0,0.001z"/>
     </g>
     <g id="svg_237">
      <path id="svg_238" fill="#091915" stroke="#050F64" stroke-miterlimit="10" d="m517.92899,1163.16396l46.933,0.324c-0.024,-1.607 -0.328,-3.154 -1.289,-4.408c-1.102,-1.449 -2.902,-2.215 -4.687,-2.536c-1.792,-0.321 -3.63,-0.251 -5.445,-0.353c-4.451,-0.249 -8.841,-1.553 -12.708,-3.777c-2.02,-1.151 -3.908,-2.565 -6.092,-3.378l-12.794,0.247c-1.763,1.874 -2.906,4.339 -3.465,6.874c-0.51,2.295 -0.58,4.656 -0.453,7.007z"/>
      <path id="svg_239" fill="#091914" stroke="#050F64" stroke-miterlimit="10" d="m462.83999,1162.96196l46.932,0.526c-0.017,-1.607 -0.314,-3.155 -1.27,-4.413c-1.096,-1.454 -2.893,-2.228 -4.676,-2.556c-1.79,-0.329 -3.629,-0.267 -5.444,-0.377c-4.45,-0.268 -8.834,-1.591 -12.691,-3.831c-2.015,-1.16 -3.897,-2.582 -6.077,-3.404l-12.795,0.192c-1.771,1.867 -2.924,4.326 -3.495,6.859c-0.521,2.292 -0.602,4.653 -0.484,7.004z"/>
      <path id="svg_240" fill="#2AD1A4" d="m407.73699,993.92096c1.934,-12.475 13.615,-21.019 26.09,-19.084c0.009,0.001 0.018,0.003 0.027,0.005l96.005,9.682c0.089,0.007 0.177,0.009 0.266,0.017c0.238,0.021 0.474,0.05 0.709,0.081l0.383,0.039l-0.001,0.017c8.428,1.294 14.659,8.522 14.77,16.981l-0.003,0.027c0.006,0.543 -0.016,1.09 -0.059,1.643l-0.012,0.13l0.007,0l-9.509,146.143l-14.09,-0.319l-9.898,-129.866l-78.305,0.545c-2.346,0.395 -4.793,0.433 -7.273,0.051l-0.022,0l0,-0.003c-0.001,0 -0.002,0 -0.003,0c-12.472,-1.934 -21.016,-13.615 -19.082,-26.089z"/>
      <g id="svg_241">
       <g id="svg_242">
        <g id="svg_243">
         <path id="svg_244" fill="#EA8096" d="m526.67999,957.41796l-8.642,-4.442l-3.8,9.458l9.258,2.908c2.346,0.796 4.84,-0.22 5.682,-2.315c0.844,-2.102 -0.254,-4.56 -2.498,-5.609z"/>
        </g>
        <path id="svg_245" fill="#FFFFFF" d="m514.13099,963.11796l4.82,-10.875c-11.761,-6.106 -23.382,-12.366 -33.803,-19.606c-5.2,-3.622 -10.065,-7.502 -14.405,-11.719c-4.339,-4.22 -8.171,-8.753 -11.375,-13.674c-6.435,-9.819 -10.547,-21.103 -13.338,-33.081c-1.37,-6.004 -2.405,-12.175 -3.248,-18.42l-0.586,-4.704l-0.485,-4.747l-0.239,-2.372l-0.189,-2.394l-0.378,-4.783c-0.018,-0.231 -0.04,-0.468 -0.068,-0.697c-0.246,-2.03 -0.911,-3.915 -1.906,-5.597c-1.004,-1.679 -2.271,-3.182 -3.819,-4.396c-3.078,-2.432 -7.127,-3.783 -11.42,-3.375l-0.039,0.004c-4.411,0.43 -8.181,2.664 -10.673,5.962c-2.522,3.286 -3.643,7.657 -2.878,12.168l1.03,5.119l0.517,2.557l0.572,2.563c0.386,1.708 0.754,3.412 1.156,5.119l1.274,5.123c1.773,6.829 3.78,13.654 6.214,20.431c2.471,6.772 5.362,13.498 8.881,20.005c3.511,6.502 7.675,12.773 12.5,18.491c4.815,5.729 10.318,10.817 16.121,15.229c5.812,4.418 11.926,8.163 18.116,11.453c6.195,3.291 12.473,6.145 18.76,8.789c6.287,2.639 12.589,5.071 18.888,7.427z"/>
        <g id="svg_246">
         <path id="svg_247" fill="#155BCC" d="m441.82099,847.38696l0.57,-0.256l-0.091,-0.9l-0.24,-2.369l-0.565,-7.167c-0.02,-0.237 -0.041,-0.483 -0.072,-0.721c-0.248,-2.062 -0.916,-4.023 -1.983,-5.83c-0.392,-0.655 -0.814,-1.272 -1.271,-1.849l-0.367,0.493c0.407,0.531 0.782,1.086 1.129,1.66c0.994,1.681 1.659,3.565 1.904,5.596c0.03,0.231 0.05,0.468 0.07,0.698l0.379,4.784l0.189,2.394l0.237,2.371l0.111,1.096zm4.045,26.036l0.558,-0.223c-0.873,-3.915 -1.649,-8.108 -2.353,-12.694l-0.582,0.144c0.665,4.316 1.44,8.585 2.377,12.773zm-35.942,-30.48l0.641,0.176l-0.464,-2.309c-0.767,-4.511 0.355,-8.881 2.878,-12.168c2.492,-3.3 6.261,-5.532 10.672,-5.96l0.041,-0.006c3.297,-0.312 6.45,0.411 9.132,1.866l0.365,-0.478c-2.897,-1.599 -6.205,-2.294 -9.554,-1.977l-0.042,0.003c-2.199,0.216 -4.282,0.86 -6.182,1.918c-1.921,1.07 -3.571,2.508 -4.905,4.277c-2.669,3.476 -3.761,8.082 -2.99,12.624l0.408,2.034zm23.665,66.485l0.46,-0.382c-1.53,-2.394 -2.965,-4.842 -4.305,-7.321c-3.518,-6.507 -6.408,-13.231 -8.882,-20.003c-2.434,-6.778 -4.439,-13.604 -6.213,-20.43l-1.275,-5.124c-0.009,-0.036 -0.017,-0.072 -0.026,-0.108l-0.551,0.236c0.001,0.003 0,0.007 0.002,0.009l1.274,5.128c1.983,7.627 4.02,14.327 6.233,20.49c2.717,7.445 5.634,14.012 8.918,20.085c1.378,2.557 2.835,5.032 4.365,7.42zm28.351,29.349c4.329,3.016 9.034,5.866 14.263,8.646c5.561,2.954 11.536,5.756 18.808,8.814c2.57,1.078 5.215,2.156 8.083,3.288l-0.199,-0.718c-2.552,-1.01 -5.104,-2.048 -7.652,-3.118c-6.288,-2.644 -12.567,-5.498 -18.761,-8.789c-4.833,-2.568 -9.622,-5.417 -14.253,-8.647c-0.095,0.178 -0.192,0.351 -0.289,0.524zm27.735,-3.103l0.162,-0.606c-1.473,-0.956 -2.926,-1.93 -4.35,-2.919c-5.541,-3.858 -10.23,-7.672 -14.33,-11.657c-4.438,-4.317 -8.238,-8.883 -11.29,-13.571c-1.58,-2.411 -3.05,-4.957 -4.414,-7.651l-0.597,0.135c1.362,2.702 2.861,5.321 4.513,7.841c3.205,4.919 7.038,9.453 11.375,13.674c4.341,4.215 9.206,8.096 14.405,11.718c1.484,1.032 2.994,2.042 4.526,3.036zm4.636,2.923c7.882,4.83 16.225,9.278 24.64,13.645l-2.229,5.028c0.137,0.161 0.279,0.33 0.426,0.503l2.571,-5.799l-0.494,-0.258c-7.758,-4.027 -16.37,-8.582 -24.634,-13.645l-0.28,0.526z"/>
        </g>
       </g>
       <path id="svg_248" fill="#FFFFFF" d="m351.63999,998.05596c33.033,9.567 53.998,-3.094 90.414,-22.387c0,0 -4.323,-117.877 -5.093,-122.137c-2.686,-14.865 -12.217,-27.068 -25.669,-32.044c-1.307,-0.486 -2.645,-0.903 -4.009,-1.244c-4.665,-1.186 -9.629,-1.532 -14.716,-0.898c-1.34,0.168 -2.66,0.387 -3.962,0.662c-2.823,0.586 -5.547,1.418 -8.16,2.468c-14.734,5.9 -25.752,18.704 -29.364,34.201c-0.869,3.717 -1.306,7.594 -1.269,11.562l1.828,129.817z"/>
       <g id="svg_249">
        <path id="svg_250" fill="#1F86C0" d="m411.66399,820.47296c-1.35,-0.497 -2.733,-0.929 -4.115,-1.274c-3.251,-0.832 -6.599,-1.242 -9.969,-1.242c-1.707,0 -3.435,0.108 -5.152,0.313c-0.151,0.022 -0.292,0.032 -0.443,0.065l0.583,1.015c5.087,-0.637 10.044,-0.292 14.71,0.896c1.372,0.335 2.711,0.756 4.018,1.242c12.302,4.558 21.32,15.153 24.83,28.308l1.08,-0.173c-3.617,-13.748 -12.948,-24.495 -25.542,-29.15zm28.416,156.239c-31.894,16.946 -51.961,28.405 -79.567,23.437l-0.313,1.037c4.45,0.81 8.77,1.21 13.047,1.21c20.856,0 38.827,-9.558 63.701,-22.789c0.799,-0.421 2.074,-1.112 3.273,-1.75l-0.141,-1.145zm-90.183,-25.338l0.54,38.525l1.08,0.086l-0.54,-38.611l-1.08,0zm90.842,-38.687l-1.069,0c0.551,14.354 1.112,28.837 1.544,40.296l1.069,-0.464c-0.442,-11.394 -0.982,-25.673 -1.544,-39.832zm-2.246,-52.458l-1.08,0c0.27,5.119 0.616,12.777 1.005,21.763l1.069,0.184c-0.379,-9.029 -0.724,-16.751 -0.994,-21.947zm-73.313,-29.485c-7.452,6.718 -12.809,15.65 -15.153,25.683c-0.897,3.845 -1.329,7.819 -1.296,11.826l0.475,33.762l1.08,0.238l-0.475,-34.021c-0.032,-3.964 0.4,-7.841 1.275,-11.556c2.279,-9.807 7.528,-18.523 14.807,-25.111l-0.713,-0.821z"/>
       </g>
       <g id="svg_251">
        <path id="svg_252" fill="#FF654F" d="m397.22199,834.62396c1.788,-0.462 3.575,-0.927 5.362,-1.398c10.217,37.243 15.221,76.75 14.251,117.303c-2.747,3.969 -5.552,7.868 -8.41,11.696c-2.306,-4.087 -4.673,-8.105 -7.096,-12.053c4.265,-39.045 2.768,-77.967 -4.107,-115.548z"/>
       </g>
       <g id="svg_253">
        <g id="svg_254">
         <path id="svg_255" fill="#F4BCC7" d="m409.05099,798.41096l-2.036,29.055c-6.623,3.668 -12.958,3.236 -19.006,-1.294l2.036,-29.055l19.006,1.294z"/>
         <path id="svg_256" fill="#EA8096" d="m409.05099,798.41096l-0.921,13.142c-1.37,0.424 -2.822,0.657 -4.324,0.682c-0.481,0.005 -0.961,-0.008 -1.44,-0.041c-5.232,-0.356 -9.975,-3.106 -12.868,-7.281l0.546,-7.798l19.007,1.296z"/>
         <path id="svg_257" fill="#F4BCC7" d="m418.93599,781.22896l-1.846,17.009c-0.737,6.796 -6.449,11.982 -13.311,12.086l0,0c-6.235,0.094 -11.933,-3.601 -14.25,-9.364c-1.534,-3.815 -2.857,-8.206 -4.095,-12.828c-1.978,-7.385 0.165,-15.382 5.844,-20.535c4.84,-4.392 10.611,-5.465 17.382,-2.974c6.841,2.519 11.06,9.381 10.276,16.606z"/>
        </g>
        <g id="svg_258">
         <path id="svg_259" fill="#0B0B0C" d="m415.83599,771.97296c0,0 3.105,5.778 2.343,16.238c0,0 2.557,-10.452 0.871,-18.774l-3.214,2.536z"/>
         <path id="svg_260" fill="#091915" stroke="#091915" stroke-miterlimit="10" d="m379.30199,787.88596c0,0 -8.957,-13.921 0.894,-24.344c10.617,-11.234 17.46,-9.912 24.801,-7.797c9.285,2.675 14.253,5.988 17.835,5.28c1.915,-0.378 3.628,-1.962 3.92,-0.874s0.682,7.496 -4.782,12.186c-5.464,4.69 -12.468,3.863 -19.297,0.191c-6.829,-3.673 -10.09,-3.276 -13.049,0.917c-3.138,4.449 0.907,12.701 0.907,12.701l-2.131,0.734c0,0 -7.935,-4.781 -9.098,1.006z"/>
        </g>
        <path id="svg_261" fill="#F4BCC7" d="m392.80499,787.10196c-0.244,3.486 -3.63,6.095 -7.563,5.827c-3.933,-0.268 -6.923,-3.311 -6.679,-6.797c0.244,-3.486 3.631,-6.095 7.563,-5.827c3.933,0.268 6.923,3.311 6.679,6.797z"/>
       </g>
       <g id="svg_262">
        <path id="svg_263" fill="#1F86C0" d="m380.44499,822.47496l14.669,22.55l4.796,-11.078l11.103,9.064l0.279,-21.524c-1.307,-0.486 -2.411,-0.848 -3.775,-1.19l-7.983,8.715l-11.096,-8.971c-2.823,0.587 -5.38,1.385 -7.993,2.434z"/>
       </g>
      </g>
      <path id="svg_264" fill="#2AD1A4" d="m352.00099,993.67596c2.222,-12.427 14.098,-20.698 26.524,-18.476c0.009,0.002 0.017,0.004 0.026,0.006l95.502,11.868c0.045,0.004 0.09,0.005 0.135,0.009c0.41,0.038 0.814,0.094 1.214,0.159l0.258,0.032l-0.001,0.01c8.233,1.461 14.268,8.606 14.367,16.938l-0.002,0.027c0.005,0.543 -0.018,1.09 -0.061,1.643l-0.012,0.13l0.007,0l-7.956,143.581l-16.239,-0.566l-9.37,-127.445l-78.622,-1.271c-2.355,0.34 -4.802,0.322 -7.272,-0.118l-0.022,0l0,-0.003c-0.001,0 -0.002,0 -0.003,0c-12.424,-2.223 -20.696,-14.098 -18.473,-26.524z"/>
      <path id="svg_265" fill="#2AD1A4" d="m397.98399,1020.64696l0,1.368l57.137,0.923l9.37,127.425l18.801,0.65l2.599,-46.871l-1.354,-0.225l-2.531,45.687l-16.244,-0.568l-9.37,-127.446l-58.408,-0.943zm91.977,-14.623l-1.518,27.371l1.368,0l1.525,-27.515c0.02,-0.28 0.034,-0.554 0.048,-0.814l0.027,-0.568l-0.014,0c0,-0.068 0,-0.294 0,-0.294c-0.103,-8.597 -6.039,-15.984 -14.287,-18.015l0.007,-0.102l-1.545,-0.205c-0.431,-0.068 -0.855,-0.123 -1.259,-0.164l-0.109,-0.007l-5.321,-0.664l-0.287,1.348l5.458,0.677c0.048,0.007 0.089,0.007 0.137,0.014c0.41,0.034 0.814,0.089 1.218,0.157l0.253,0.027l0,0.014c8.235,1.464 14.267,8.604 14.37,16.941l0,0.02c0,0.547 -0.02,1.094 -0.062,1.648l-0.014,0.13l0.005,0l0,0.001z"/>
      <g id="svg_266">
       <g id="svg_267">
        <path id="svg_268" fill="#F4BCC7" d="m481.16699,972.63096l-8.875,-3.955l-3.269,9.654l9.405,2.389c2.387,0.664 4.82,-0.489 5.544,-2.628c0.727,-2.144 -0.505,-4.538 -2.805,-5.46z"/>
       </g>
       <path id="svg_269" fill="#FFFFFF" d="m468.95499,979.01996l4.208,-11.126c-12.082,-5.443 -24.034,-11.047 -34.84,-17.697c-5.393,-3.327 -10.466,-6.931 -15.035,-10.901c-4.567,-3.972 -8.644,-8.285 -12.117,-13.021c-6.971,-9.446 -11.703,-20.484 -15.155,-32.288c-1.702,-5.919 -3.078,-12.022 -4.267,-18.211l-0.847,-4.664l-0.748,-4.713l-0.371,-2.355l-0.322,-2.38l-0.644,-4.755c-0.031,-0.229 -0.066,-0.465 -0.107,-0.692c-0.358,-2.013 -1.127,-3.858 -2.214,-5.483c-1.096,-1.62 -2.444,-3.051 -4.057,-4.177c-3.208,-2.257 -7.326,-3.381 -11.59,-2.735l-0.039,0.006c-4.38,0.674 -8.02,3.114 -10.326,6.545c-2.335,3.421 -3.211,7.848 -2.197,12.31l1.313,5.054l0.658,2.524l0.714,2.527c0.48,1.684 0.942,3.365 1.439,5.047l1.557,5.044c2.15,6.719 4.533,13.422 7.34,20.054c2.844,6.625 6.104,13.179 9.979,19.48c3.867,6.296 8.373,12.327 13.508,17.768c5.126,5.452 10.903,10.227 16.943,14.31c6.048,4.089 12.361,7.487 18.724,10.429c6.369,2.942 12.796,5.442 19.219,7.733c6.426,2.286 12.854,4.364 19.274,6.367z"/>
       <g id="svg_270">
        <path id="svg_271" fill="#155BCC" d="m390.32499,867.48596l0.555,-0.288l-0.141,-0.894l-0.371,-2.352l-0.962,-7.124c-0.033,-0.235 -0.068,-0.48 -0.112,-0.716c-0.363,-2.045 -1.138,-3.966 -2.304,-5.71c-0.428,-0.632 -0.883,-1.225 -1.372,-1.776l-0.339,0.513c0.436,0.507 0.841,1.041 1.219,1.595c1.086,1.623 1.855,3.467 2.212,5.481c0.043,0.229 0.076,0.464 0.108,0.693l0.645,4.756l0.322,2.38l0.368,2.354l0.172,1.088zm5.485,25.771l0.545,-0.254c-1.089,-3.86 -2.098,-8.004 -3.055,-12.544l-0.573,0.176c0.904,4.273 1.915,8.492 3.083,12.622zm-37.58,-28.436l0.65,0.14l-0.592,-2.28c-1.016,-4.461 -0.139,-8.887 2.197,-12.309c2.305,-3.433 5.944,-5.871 10.324,-6.544l0.041,-0.008c3.275,-0.494 6.463,0.052 9.221,1.355l0.338,-0.498c-2.982,-1.435 -6.323,-1.945 -9.649,-1.443l-0.042,0.006c-2.184,0.338 -4.228,1.097 -6.066,2.259c-1.858,1.175 -3.426,2.703 -4.66,4.543c-2.471,3.619 -3.306,8.278 -2.284,12.771l0.522,2.008zm27.323,65.067l0.438,-0.407c-1.661,-2.305 -3.229,-4.669 -4.705,-7.071c-3.875,-6.301 -7.133,-12.854 -9.98,-19.479c-2.806,-6.632 -5.188,-13.336 -7.339,-20.053l-1.558,-5.046c-0.012,-0.035 -0.021,-0.071 -0.032,-0.106l-0.537,0.266c0.002,0.003 0.001,0.007 0.002,0.009l1.557,5.049c2.403,7.505 4.81,14.081 7.362,20.112c3.127,7.283 6.404,13.677 10.02,19.558c1.52,2.479 3.112,4.87 4.772,7.168zm29.938,27.729c4.49,2.771 9.346,5.355 14.721,7.84c5.716,2.641 11.838,5.106 19.269,7.755c2.626,0.934 5.326,1.863 8.254,2.834l-0.239,-0.705c-2.605,-0.867 -5.209,-1.761 -7.813,-2.688c-6.426,-2.291 -12.853,-4.791 -19.22,-7.733c-4.968,-2.296 -9.908,-4.873 -14.712,-7.842c-0.085,0.182 -0.172,0.36 -0.26,0.539zm27.52,-4.64l0.128,-0.614c-1.524,-0.872 -3.028,-1.764 -4.505,-2.673c-5.747,-3.544 -10.64,-7.092 -14.956,-10.843c-4.671,-4.063 -8.719,-8.412 -12.027,-12.923c-1.712,-2.319 -3.32,-4.78 -4.833,-7.394l-0.589,0.168c1.51,2.622 3.153,5.153 4.942,7.578c3.473,4.733 7.552,9.048 12.117,13.021c4.568,3.967 9.642,7.572 15.034,10.899c1.541,0.949 3.104,1.874 4.689,2.781zm4.792,2.661c8.139,4.384 16.715,8.362 25.36,12.254l-1.946,5.144c0.146,0.153 0.297,0.314 0.453,0.479l2.244,-5.933l-0.507,-0.23c-7.969,-3.589 -16.822,-7.659 -25.354,-12.255l-0.25,0.541z"/>
       </g>
      </g>
      <g id="svg_272">
       <rect id="svg_273" fill="#155BCC" height="4.611" width="137.344" transform="matrix(0.999, 0.0437, -0.0437, 0.999, 57.5653, -24.0707)" y="986.72198" x="400.73417"/>
       <polygon id="svg_274" fill="#155BCC" points="552.0109858512878,985.238037109375 466.7880244255066,981.510009765625 496.1630244255066,912.9029541015625 581.3870234489441,916.6309814453125 "/>
       <ellipse id="svg_275" fill="#FFFFFF" ry="13.339" rx="4.94" cy="993.23851" cx="438.79196" transform="matrix(0.9607, 0.2777, -0.2777, 0.9607, 378.224, -122.04)"/>
      </g>
     </g>
    </g>
    <g id="svg_276">
     <g id="svg_277">
      <circle id="svg_278" fill="#1F86C0" r="221.20398" cy="1101.28496" cx="1462.22999"/>
     </g>
     <g id="svg_279">
      <circle id="svg_280" fill="#FFFFFF" r="180.62793" cy="1101.28496" cx="1469.73199"/>
     </g>
     <g id="svg_281">
      <rect id="svg_282" fill="#1F86C0" height="28.796" width="6.981" y="930.69196" x="1466.24199"/>
     </g>
     <g id="svg_283">
      <path id="svg_284" fill="#FFCA32" d="m1469.73099,1108.78696c-0.855,0 -1.726,-0.147 -2.577,-0.459c-3.89,-1.424 -5.889,-5.73 -4.465,-9.621l51.283,-140.125c1.424,-3.889 5.727,-5.89 9.621,-4.465c3.89,1.424 5.889,5.73 4.465,9.621l-51.283,140.125c-1.112,3.039 -3.985,4.924 -7.044,4.924z"/>
     </g>
     <g id="svg_285">
      <path id="svg_286" fill="#FFCA32" d="m1572.47199,1178.91596c-1.456,0 -2.928,-0.424 -4.222,-1.307l-102.746,-70.13c-3.421,-2.335 -4.301,-7.001 -1.966,-10.423c2.335,-3.421 6.999,-4.302 10.423,-1.966l102.746,70.13c3.421,2.335 4.301,7.001 1.966,10.423c-1.452,2.128 -3.806,3.273 -6.201,3.273z"/>
     </g>
     <g id="svg_287">
      <circle id="svg_288" fill="#DCAB28" r="19.63397" cy="1101.28496" cx="1469.73199"/>
     </g>
     <g id="svg_289">
      <rect id="svg_290" fill="#1F86C0" height="6.981" width="28.796" y="1097.79496" x="1299.13899"/>
     </g>
     <g id="svg_291">
      <rect id="svg_292" fill="#1F86C0" height="28.796" width="6.981" y="1243.08296" x="1466.24199"/>
     </g>
     <g id="svg_293">
      <rect id="svg_294" fill="#1F86C0" height="6.981" width="28.796" y="1097.79496" x="1611.52999"/>
     </g>
     <g id="svg_295">
      <path id="svg_296" fill="#E5E6EB" d="m1384.43599,953.54696c-1.722,0.994 -2.312,3.195 -1.318,4.917l4.908,8.502c0.994,1.722 3.196,2.311 4.917,1.317c1.722,-0.994 2.311,-3.195 1.318,-4.917l-4.908,-8.502c-0.994,-1.722 -3.196,-2.311 -4.917,-1.317z"/>
     </g>
     <g id="svg_297">
      <path id="svg_298" fill="#E5E6EB" d="m1321.99399,1015.98796c-0.994,1.722 -0.404,3.923 1.318,4.917l8.501,4.908c1.722,0.994 3.923,0.404 4.917,-1.318c0.994,-1.722 0.404,-3.923 -1.317,-4.917l-8.502,-4.908c-1.722,-0.993 -3.923,-0.404 -4.917,1.318z"/>
     </g>
     <g id="svg_299">
      <path id="svg_300" fill="#E5E6EB" d="m1321.99399,1186.58196c0.994,1.722 3.195,2.312 4.917,1.318l8.502,-4.908c1.722,-0.994 2.311,-3.195 1.317,-4.917c-0.994,-1.722 -3.195,-2.312 -4.917,-1.318l-8.501,4.908c-1.722,0.993 -2.312,3.195 -1.318,4.917z"/>
     </g>
     <g id="svg_301">
      <path id="svg_302" fill="#E5E6EB" d="m1384.43599,1249.02296c1.721,0.994 3.923,0.404 4.917,-1.318l4.908,-8.502c0.994,-1.721 0.404,-3.923 -1.318,-4.917c-1.722,-0.994 -3.923,-0.404 -4.917,1.317l-4.908,8.502c-0.994,1.723 -0.404,3.924 1.318,4.918z"/>
     </g>
     <g id="svg_303">
      <path id="svg_304" fill="#E5E6EB" d="m1555.02899,1249.02296c1.721,-0.994 2.312,-3.195 1.318,-4.917l-4.908,-8.502c-0.994,-1.722 -3.195,-2.311 -4.917,-1.317c-1.722,0.994 -2.312,3.195 -1.318,4.917l4.908,8.502c0.994,1.721 3.195,2.311 4.917,1.317z"/>
     </g>
     <g id="svg_305">
      <path id="svg_306" fill="#E5E6EB" d="m1617.46999,1186.58196c0.994,-1.721 0.404,-3.923 -1.318,-4.917l-8.502,-4.908c-1.722,-0.994 -3.923,-0.404 -4.917,1.318c-0.994,1.722 -0.404,3.923 1.318,4.917l8.502,4.908c1.722,0.993 3.923,0.403 4.917,-1.318z"/>
     </g>
     <g id="svg_307">
      <path id="svg_308" fill="#E5E6EB" d="m1617.46999,1015.98796c-0.994,-1.721 -3.195,-2.311 -4.917,-1.318l-8.502,4.908c-1.722,0.994 -2.311,3.195 -1.318,4.917c0.994,1.722 3.195,2.312 4.917,1.318l8.502,-4.908c1.723,-0.994 2.312,-3.195 1.318,-4.917z"/>
     </g>
     <g id="svg_309">
      <path id="svg_310" fill="#E5E6EB" d="m1555.02899,953.54696c-1.722,-0.994 -3.923,-0.404 -4.917,1.318l-4.908,8.502c-0.994,1.721 -0.404,3.923 1.318,4.917c1.722,0.994 3.923,0.404 4.917,-1.317l4.908,-8.502c0.993,-1.723 0.404,-3.924 -1.318,-4.918z"/>
     </g>
    </g>
    <g id="svg_311">
     <path id="svg_312" fill="#FFFFFF" d="m497.30099,286.50596c1.27,-2.936 1.978,-6.172 1.978,-9.574c0,-13.329 -10.806,-24.135 -24.135,-24.135c-3.534,0 -6.887,0.766 -9.911,2.13c0.769,-2.674 1.189,-5.496 1.189,-8.417c0,-16.801 -13.62,-30.421 -30.421,-30.421c-5.233,0 -10.158,1.322 -14.458,3.65c-5.514,-18.012 -22.268,-31.112 -42.086,-31.112c-24.306,0 -44.011,19.704 -44.011,44.011c0,1.198 0.061,2.381 0.155,3.555c-1.073,-0.146 -2.166,-0.228 -3.279,-0.228c-13.329,0 -24.135,10.806 -24.135,24.135c0,1.458 0.136,2.882 0.384,4.269c-0.128,-0.002 -0.255,-0.01 -0.384,-0.01c-12.659,0 -23.035,9.749 -24.047,22.147l213.161,0z"/>
    </g>
    <path id="svg_313" fill="#FFFFFF" d="m1359.49499,214.31496c-2.752,-7.405 -8.232,-13.484 -15.219,-17.014c1.462,-3.615 2.269,-7.565 2.269,-11.704c0,-17.246 -13.981,-31.227 -31.227,-31.227c-1.546,0 -3.066,0.114 -4.552,0.331c-4.923,-21.739 -24.358,-37.971 -47.586,-37.971c-20.371,0 -37.822,12.485 -45.129,30.219c-3.995,-1.857 -8.448,-2.895 -13.143,-2.895c-17.246,0 -31.227,13.981 -31.227,31.227c0,1.555 0.115,3.082 0.335,4.576c-2.087,-0.44 -4.251,-0.673 -6.469,-0.673c-17.246,0 -31.227,13.981 -31.227,31.227c0,1.322 0.083,2.625 0.243,3.903l222.932,0l0,0.001z"/>
   </g>
  </g>
 </g>
</svg>